<mxfile host="app.diagrams.net" modified="2023-11-28T20:22:46.537Z" agent="Mozilla/5.0 (Windows NT 10.0; Win64; x64) AppleWebKit/537.36 (KHTML, like Gecko) Chrome/119.0.0.0 Safari/537.36" etag="hpY86lnDOWHtVCyDIiyC" version="22.1.4" type="google">
  <diagram name="Страница — 1" id="o4NpCO_jRCv_6Y9anE2T">
    <mxGraphModel grid="1" page="1" gridSize="10" guides="1" tooltips="1" connect="1" arrows="1" fold="1" pageScale="1" pageWidth="1169" pageHeight="827" math="0" shadow="0">
      <root>
        <mxCell id="0" />
        <mxCell id="1" parent="0" />
        <mxCell id="0IJXGgogMxJY0W9kZaAt-2" value="" style="rounded=0;whiteSpace=wrap;html=1;" vertex="1" parent="1">
          <mxGeometry x="360" y="200" width="440" height="280" as="geometry" />
        </mxCell>
        <mxCell id="0IJXGgogMxJY0W9kZaAt-3" value="Устроить прокат фильма для зрителей" style="text;html=1;strokeColor=none;fillColor=none;align=center;verticalAlign=middle;whiteSpace=wrap;rounded=0;" vertex="1" parent="1">
          <mxGeometry x="360" y="200" width="440" height="280" as="geometry" />
        </mxCell>
        <mxCell id="0IJXGgogMxJY0W9kZaAt-4" value="" style="endArrow=classic;html=1;rounded=0;entryX=0;entryY=0.714;entryDx=0;entryDy=0;entryPerimeter=0;" edge="1" parent="1" target="0IJXGgogMxJY0W9kZaAt-3">
          <mxGeometry width="50" height="50" relative="1" as="geometry">
            <mxPoint x="120" y="400" as="sourcePoint" />
            <mxPoint x="170" y="350" as="targetPoint" />
          </mxGeometry>
        </mxCell>
        <mxCell id="0IJXGgogMxJY0W9kZaAt-5" value="" style="endArrow=classic;html=1;rounded=0;entryX=0;entryY=0.714;entryDx=0;entryDy=0;entryPerimeter=0;" edge="1" parent="1">
          <mxGeometry width="50" height="50" relative="1" as="geometry">
            <mxPoint x="120" y="280" as="sourcePoint" />
            <mxPoint x="360" y="280" as="targetPoint" />
          </mxGeometry>
        </mxCell>
        <mxCell id="0IJXGgogMxJY0W9kZaAt-6" value="Дистрибьютор" style="text;html=1;strokeColor=none;fillColor=none;align=center;verticalAlign=middle;whiteSpace=wrap;rounded=0;" vertex="1" parent="1">
          <mxGeometry x="120" y="370" width="240" height="30" as="geometry" />
        </mxCell>
        <mxCell id="0IJXGgogMxJY0W9kZaAt-8" value="Потенциальный зритель" style="text;html=1;strokeColor=none;fillColor=none;align=center;verticalAlign=middle;whiteSpace=wrap;rounded=0;" vertex="1" parent="1">
          <mxGeometry x="120" y="250" width="240" height="30" as="geometry" />
        </mxCell>
        <mxCell id="0IJXGgogMxJY0W9kZaAt-9" value="Зритель на сеансе" style="text;html=1;strokeColor=none;fillColor=none;align=center;verticalAlign=middle;whiteSpace=wrap;rounded=0;" vertex="1" parent="1">
          <mxGeometry x="800" y="310" width="240" height="30" as="geometry" />
        </mxCell>
        <mxCell id="0IJXGgogMxJY0W9kZaAt-12" value="" style="endArrow=classic;html=1;rounded=0;entryX=1;entryY=1;entryDx=0;entryDy=0;" edge="1" parent="1">
          <mxGeometry width="50" height="50" relative="1" as="geometry">
            <mxPoint x="800" y="339.5" as="sourcePoint" />
            <mxPoint x="1040" y="339.5" as="targetPoint" />
          </mxGeometry>
        </mxCell>
        <mxCell id="0IJXGgogMxJY0W9kZaAt-13" value="" style="endArrow=classic;html=1;rounded=0;" edge="1" parent="1">
          <mxGeometry width="50" height="50" relative="1" as="geometry">
            <mxPoint x="440" y="640" as="sourcePoint" />
            <mxPoint x="440" y="480" as="targetPoint" />
          </mxGeometry>
        </mxCell>
        <mxCell id="0IJXGgogMxJY0W9kZaAt-15" value="" style="endArrow=classic;html=1;rounded=0;" edge="1" parent="1">
          <mxGeometry width="50" height="50" relative="1" as="geometry">
            <mxPoint x="720" y="640" as="sourcePoint" />
            <mxPoint x="720" y="480" as="targetPoint" />
          </mxGeometry>
        </mxCell>
        <mxCell id="0IJXGgogMxJY0W9kZaAt-16" value="Средства и оборудование" style="text;html=1;strokeColor=none;fillColor=none;align=center;verticalAlign=middle;whiteSpace=wrap;rounded=0;" vertex="1" parent="1">
          <mxGeometry x="380" y="640" width="120" height="30" as="geometry" />
        </mxCell>
        <mxCell id="0IJXGgogMxJY0W9kZaAt-17" value="Персонал кинотеатра" style="text;html=1;strokeColor=none;fillColor=none;align=center;verticalAlign=middle;whiteSpace=wrap;rounded=0;" vertex="1" parent="1">
          <mxGeometry x="670" y="640" width="120" height="30" as="geometry" />
        </mxCell>
        <mxCell id="0IJXGgogMxJY0W9kZaAt-19" value="" style="endArrow=classic;html=1;rounded=0;entryX=0.182;entryY=-0.007;entryDx=0;entryDy=0;entryPerimeter=0;" edge="1" parent="1" target="0IJXGgogMxJY0W9kZaAt-3">
          <mxGeometry width="50" height="50" relative="1" as="geometry">
            <mxPoint x="439.5" y="40" as="sourcePoint" />
            <mxPoint x="439.5" y="-120" as="targetPoint" />
          </mxGeometry>
        </mxCell>
        <mxCell id="0IJXGgogMxJY0W9kZaAt-20" value="" style="endArrow=classic;html=1;rounded=0;entryX=0.182;entryY=-0.007;entryDx=0;entryDy=0;entryPerimeter=0;" edge="1" parent="1">
          <mxGeometry width="50" height="50" relative="1" as="geometry">
            <mxPoint x="720" y="40" as="sourcePoint" />
            <mxPoint x="720.5" y="198" as="targetPoint" />
          </mxGeometry>
        </mxCell>
        <mxCell id="0IJXGgogMxJY0W9kZaAt-21" value="Требования к фильмам в прокате" style="text;html=1;strokeColor=none;fillColor=none;align=center;verticalAlign=middle;whiteSpace=wrap;rounded=0;" vertex="1" parent="1">
          <mxGeometry x="360" y="10" width="160" height="30" as="geometry" />
        </mxCell>
        <mxCell id="0IJXGgogMxJY0W9kZaAt-23" value="Стандарты работы кинотеатра" style="text;html=1;strokeColor=none;fillColor=none;align=center;verticalAlign=middle;whiteSpace=wrap;rounded=0;" vertex="1" parent="1">
          <mxGeometry x="640" y="10" width="160" height="30" as="geometry" />
        </mxCell>
        <mxCell id="0IJXGgogMxJY0W9kZaAt-24" value="0" style="text;html=1;strokeColor=none;fillColor=none;align=center;verticalAlign=middle;whiteSpace=wrap;rounded=0;" vertex="1" parent="1">
          <mxGeometry x="770" y="450" width="30" height="30" as="geometry" />
        </mxCell>
      </root>
    </mxGraphModel>
  </diagram>
</mxfile>
